<?xml version="1.0" encoding="UTF-8" standalone="no"?>
<!DOCTYPE svg PUBLIC "-//W3C//DTD SVG 1.1//EN" "http://www.w3.org/Graphics/SVG/1.1/DTD/svg11.dtd">
<svg width="100%" height="100%" viewBox="0 0 300 300" version="1.1" xmlns="http://www.w3.org/2000/svg" xmlns:xlink="http://www.w3.org/1999/xlink" xml:space="preserve" xmlns:serif="http://www.serif.com/" style="fill-rule:evenodd;clip-rule:evenodd;stroke-linejoin:round;stroke-miterlimit:2;">
    <g transform="matrix(1,0,0,1,-1.84216,-34.5993)">
        <path d="M104.65,314.4C104.44,314.394 104.271,314.22 104.271,314.01C104.271,313.914 104.306,313.822 104.37,313.75L132.87,283.18C133.622,282.37 134.681,281.909 135.79,281.91C167.557,281.857 191.877,281.89 208.75,282.01C225.22,282.14 238.4,273.71 243.53,257.99C244.603,254.717 245.12,250.257 245.08,244.61C244.99,232.9 245.76,226.08 240.77,217.23C235.99,208.737 229.27,203.183 220.61,200.57C217.223,199.55 211.44,199.06 203.26,199.1C194.313,199.14 159.077,199.18 97.55,199.22C89.003,199.22 82.54,198.76 78.16,197.84C46.01,191.04 24.19,164.32 23.96,131.49C23.91,123.97 23.75,115.17 25.36,107.92C31.29,81.35 49.91,63.06 75.86,57.23C80.26,56.243 87.39,55.75 97.25,55.75C184.503,55.743 232.92,55.77 242.5,55.83C246.367,55.85 250.897,55.787 256.09,55.64C256.093,55.64 256.097,55.64 256.1,55.64C256.396,55.64 256.64,55.884 256.64,56.18C256.64,56.18 256.64,87.78 256.64,87.78C256.64,88.071 256.396,88.31 256.1,88.31C248.707,88.39 197.213,88.413 101.62,88.38C92.42,88.373 86.053,88.893 82.52,89.94C70.89,93.38 61.34,103.48 59.32,115.53C58.907,117.977 58.7,121.467 58.7,126C58.71,135.14 58.68,141.77 62.68,148.38C67.893,157 75.063,162.617 84.19,165.23C87.457,166.163 92.22,166.627 98.48,166.62C148.18,166.58 185.78,166.58 211.28,166.62C224.587,166.647 236.363,169.68 246.61,175.72C266.65,187.52 278.54,208.62 278.86,231.76C279,242.147 278.987,249.39 278.82,253.49C278.51,261.04 276.84,267.49 274.08,274.5C264.22,299.61 240.75,314.21 213.99,314.35C187.137,314.49 150.69,314.507 104.65,314.4Z" style="fill-rule:nonzero;"/>
    </g>
    <g transform="matrix(1,0,0,1,-1.84216,-34.5993)">
        <path d="M96.49,281.92C96.797,281.921 97.049,282.173 97.049,282.48C97.049,282.621 96.996,282.757 96.9,282.86L68.26,313.58C67.705,314.173 66.926,314.51 66.11,314.51C66.11,314.51 24.37,314.51 24.37,314.51C24.008,314.51 23.71,314.212 23.71,313.85C23.71,313.847 23.71,313.843 23.71,313.84C23.763,310.327 24.613,307.143 26.26,304.29C29.67,298.37 39.27,281.75 46.74,281.78C59.613,281.853 76.197,281.9 96.49,281.92Z" style="fill-rule:nonzero;"/>
    </g>
</svg>
