<?xml version="1.0" encoding="UTF-8" standalone="no"?>
<!DOCTYPE svg PUBLIC "-//W3C//DTD SVG 1.1//EN" "http://www.w3.org/Graphics/SVG/1.1/DTD/svg11.dtd">
<svg width="100%" height="100%" viewBox="0 0 1182 378" version="1.1" xmlns="http://www.w3.org/2000/svg" xmlns:xlink="http://www.w3.org/1999/xlink" xml:space="preserve" xmlns:serif="http://www.serif.com/" style="fill-rule:evenodd;clip-rule:evenodd;stroke-linejoin:round;stroke-miterlimit:2;">
    <path d="M104.65,314.4C104.44,314.394 104.271,314.22 104.271,314.01C104.271,313.914 104.306,313.822 104.37,313.75L132.87,283.18C133.622,282.37 134.681,281.909 135.79,281.91C167.557,281.857 191.877,281.89 208.75,282.01C225.22,282.14 238.4,273.71 243.53,257.99C244.603,254.717 245.12,250.257 245.08,244.61C244.99,232.9 245.76,226.08 240.77,217.23C235.99,208.737 229.27,203.183 220.61,200.57C217.223,199.55 211.44,199.06 203.26,199.1C194.313,199.14 159.077,199.18 97.55,199.22C89.003,199.22 82.54,198.76 78.16,197.84C46.01,191.04 24.19,164.32 23.96,131.49C23.91,123.97 23.75,115.17 25.36,107.92C31.29,81.35 49.91,63.06 75.86,57.23C80.26,56.243 87.39,55.75 97.25,55.75C184.503,55.743 232.92,55.77 242.5,55.83C246.367,55.85 250.897,55.787 256.09,55.64C256.093,55.64 256.097,55.64 256.1,55.64C256.396,55.64 256.64,55.884 256.64,56.18C256.64,56.18 256.64,87.78 256.64,87.78C256.64,88.071 256.396,88.31 256.1,88.31C248.707,88.39 197.213,88.413 101.62,88.38C92.42,88.373 86.053,88.893 82.52,89.94C70.89,93.38 61.34,103.48 59.32,115.53C58.907,117.977 58.7,121.467 58.7,126C58.71,135.14 58.68,141.77 62.68,148.38C67.893,157 75.063,162.617 84.19,165.23C87.457,166.163 92.22,166.627 98.48,166.62C148.18,166.58 185.78,166.58 211.28,166.62C224.587,166.647 236.363,169.68 246.61,175.72C266.65,187.52 278.54,208.62 278.86,231.76C279,242.147 278.987,249.39 278.82,253.49C278.51,261.04 276.84,267.49 274.08,274.5C264.22,299.61 240.75,314.21 213.99,314.35C187.137,314.49 150.69,314.507 104.65,314.4Z" style="fill:white;fill-rule:nonzero;"/>
    <path d="M376.74,71.76C377.234,71.76 377.64,72.162 377.64,72.65C377.587,98.717 377.567,121.16 377.58,139.98C377.58,140.947 377.72,141.793 378,142.52C378.179,143 378.643,143.32 379.16,143.32L472.88,143.32C473.368,143.32 473.77,143.722 473.77,144.21L473.77,171.68C473.77,172.141 473.391,172.52 472.93,172.52L378.59,172.52C378.22,172.518 377.906,172.802 377.87,173.17C377.697,175.023 377.607,176.8 377.6,178.5C377.453,209.427 377.467,234.34 377.64,253.24C377.77,267.85 384.91,279.44 398.96,284.14C402.14,285.2 407.377,285.673 414.67,285.56C423.843,285.42 443.313,285.44 473.08,285.62C473.497,285.62 473.84,285.963 473.84,286.38L473.84,313.77C473.84,314.116 473.556,314.4 473.21,314.4C450.257,314.493 426.683,314.483 402.49,314.37C373.04,314.23 349.44,293.83 345.01,264.63C344.517,261.397 344.263,252.63 344.25,238.33C344.23,217.863 344.257,196.14 344.33,173.16C344.33,172.831 344.059,172.56 343.73,172.56L303.44,172.56C303.232,172.56 303.06,172.384 303.06,172.17L303.06,144.15C303.06,143.706 303.426,143.34 303.87,143.34L343.66,143.34C344.011,143.34 344.3,143.051 344.3,142.7L344.3,72.37C344.3,72.035 344.575,71.76 344.91,71.76L376.74,71.76Z" style="fill:white;fill-rule:nonzero;"/>
    <path d="M807.67,313.98C807.659,314.236 807.446,314.44 807.19,314.44L774.64,314.44C774.349,314.44 774.11,314.201 774.11,313.91C774.103,251.07 774.133,214.27 774.2,203.51C774.24,196.67 775.59,186.91 778.19,180C787.12,156.23 809.12,143.49 834,143.41C883.453,143.263 910.653,143.183 915.6,143.17C915.603,143.17 915.607,143.17 915.61,143.17C916.186,143.17 916.66,143.644 916.66,144.22C916.66,144.22 916.66,171.98 916.66,171.98C916.66,172.234 916.454,172.445 916.2,172.45C892.34,172.643 866.853,172.643 839.74,172.45C828.35,172.36 815.95,178.17 811,188.91C808.92,193.417 807.88,198.447 807.88,204C807.86,235.287 807.853,267.87 807.86,301.75C807.867,305.63 807.803,309.707 807.67,313.98Z" style="fill:white;fill-rule:nonzero;"/>
    <path d="M979.1,245.04C979.4,252.68 979.903,257.873 980.61,260.62C983.86,273.32 993.14,281.81 1005.68,284.83C1008.17,285.437 1011.75,285.71 1016.4,285.65C1047.84,285.25 1101.48,285.68 1143.9,285.46C1143.9,285.46 1143.91,285.46 1143.91,285.46C1144.3,285.46 1144.62,285.78 1144.62,286.17C1144.62,286.17 1144.62,313.41 1144.62,313.41C1144.62,313.933 1144.19,314.365 1143.66,314.37C1099.9,314.543 1054.52,314.547 1007.51,314.38C1000.26,314.353 993.087,312.977 986,310.25C970.22,304.183 958.807,293.69 951.76,278.77C947.12,268.93 945.74,257.66 945.71,245.38C945.657,227.953 945.717,214.327 945.89,204.5C945.94,201.73 946.53,198.81 947.11,194.53C948.577,183.71 953.193,173.763 960.96,164.69C963.673,161.517 966.04,159.153 968.06,157.6C980.227,148.22 993.867,143.483 1008.98,143.39C1022.18,143.303 1045.04,143.26 1077.55,143.26C1089.28,143.26 1097.37,143.83 1101.82,144.97C1117.97,149.11 1131.04,158.51 1138.63,173.92C1143.12,183.04 1144.59,192.24 1144.65,203.68C1144.74,218.46 1144.68,227.733 1144.47,231.5C1144.35,233.5 1142.18,235.95 1140.45,237.61C1137.32,240.597 1133.67,242.4 1129.5,243.02C1123.41,243.92 1117.16,244.373 1110.75,244.38C1071.01,244.387 1029.47,244.4 986.12,244.42C983.89,244.42 980.98,244 979.72,244.26C979.353,244.329 979.088,244.662 979.1,245.04ZM979.39,214.74C979.411,215.103 979.716,215.391 980.08,215.39L1111.11,215.39C1111.11,215.39 1111.11,215.39 1111.11,215.39C1111.47,215.39 1111.77,215.092 1111.77,214.73C1111.77,214.72 1111.77,214.71 1111.77,214.7C1111.28,204.22 1113.57,191.56 1105.88,181.87C1100.89,175.583 1094.32,172.463 1086.19,172.51C1062.79,172.65 1039.38,172.65 1015.95,172.51C1010.54,172.47 1006.59,172.767 1004.11,173.4C991.55,176.57 982.09,186.21 980.13,199.11C979.31,204.517 979.063,209.727 979.39,214.74Z" style="fill:white;fill-rule:nonzero;"/>
    <path d="M552.07,144.3C552.289,144.3 552.47,144.476 552.47,144.69C552.45,192.617 552.447,227.887 552.46,250.5C552.46,256.27 553.65,264.52 556.63,269.7C560.717,276.827 566.617,281.623 574.33,284.09C577.417,285.077 583.09,285.567 591.35,285.56C648.717,285.533 679.517,285.517 683.75,285.51C688.303,285.503 692.18,285.4 695.38,285.2C695.754,285.179 696.051,284.865 696.05,284.49L696.05,145.04C696.05,144.651 696.371,144.33 696.76,144.33L728.53,144.33C728.848,144.33 729.11,144.587 729.11,144.9L729.11,313.96C729.11,314.223 728.893,314.44 728.63,314.44C679.843,314.513 629.803,314.507 578.51,314.42C570.99,314.407 563.447,312.883 555.88,309.85C542.127,304.33 531.97,295.003 525.41,281.87C520.41,271.86 519.23,260.89 519.24,248.05C519.26,181.53 519.28,147.203 519.3,145.07C519.305,144.646 519.66,144.3 520.09,144.3L552.07,144.3Z" style="fill:white;fill-rule:nonzero;"/>
    <path d="M96.49,281.92C96.797,281.921 97.049,282.173 97.049,282.48C97.049,282.621 96.996,282.757 96.9,282.86L68.26,313.58C67.705,314.173 66.926,314.51 66.11,314.51C66.11,314.51 24.37,314.51 24.37,314.51C24.008,314.51 23.71,314.212 23.71,313.85C23.71,313.847 23.71,313.843 23.71,313.84C23.763,310.327 24.613,307.143 26.26,304.29C29.67,298.37 39.27,281.75 46.74,281.78C59.613,281.853 76.197,281.9 96.49,281.92Z" style="fill:white;fill-rule:nonzero;"/>
</svg>
